<?xml version="1.0" standalone="no"?>
<!DOCTYPE svg PUBLIC "-//W3C//DTD SVG 20010904//EN"
 "http://www.w3.org/TR/2001/REC-SVG-20010904/DTD/svg10.dtd">
<svg version="1.0" xmlns="http://www.w3.org/2000/svg"
 width="555.000000pt" height="526.000000pt" viewBox="0 0 555.000000 526.000000"
 preserveAspectRatio="xMidYMid meet">

<g transform="translate(0.000000,526.000000) scale(0.100000,-0.100000)"
fill="#000000" stroke="none">
<path d="M529 4117 c-34 -11 -157 -95 -158 -108 -1 -3 126 -86 282 -184 302
-190 367 -232 435 -277 23 -15 44 -28 46 -28 3 0 159 -98 348 -218 l343 -219
150 -152 c83 -83 150 -157 150 -164 0 -7 -49 -20 -125 -35 -69 -12 -141 -27
-160 -32 -19 -4 -66 -14 -105 -21 -38 -6 -91 -16 -117 -20 -27 -5 -72 -13
-100 -18 l-53 -9 -45 47 c-25 25 -99 105 -165 176 -241 263 -264 280 -376 273
-38 -2 -74 -9 -80 -15 -10 -10 -3 -163 18 -365 4 -43 2 -58 -7 -58 -7 0 -67
27 -134 59 -66 32 -150 72 -186 89 -36 16 -108 50 -160 74 -52 25 -110 48
-128 51 -44 9 -116 -10 -139 -35 -20 -22 -41 1 246 -268 79 -74 180 -169 224
-210 l79 -76 -21 -34 c-24 -40 -27 -73 -8 -88 12 -11 71 -26 138 -37 34 -5 47
-19 165 -179 71 -96 139 -180 151 -187 17 -9 32 -9 67 1 25 7 50 18 55 24 5 6
23 67 40 135 16 68 34 127 38 130 4 4 76 4 158 0 350 -16 917 -8 1170 16 60 6
73 4 90 -12 11 -10 58 -52 105 -93 47 -41 101 -89 120 -107 19 -17 47 -41 62
-53 l28 -21 2 -402 3 -402 80 3 c177 7 181 11 315 312 21 47 54 119 73 160 19
41 44 95 55 120 11 25 43 93 71 153 28 59 65 140 82 180 17 39 50 113 74 162
23 50 52 113 64 141 l23 51 117 17 c64 9 136 21 161 26 25 5 97 18 160 30 129
24 191 38 365 82 156 39 165 41 265 73 47 15 96 30 110 34 99 31 301 130 365
179 100 75 138 169 100 243 -15 29 -71 70 -110 81 -127 36 -232 73 -290 101
-102 49 -211 63 -330 42 -115 -20 -142 -28 -236 -69 -20 -8 -60 -20 -90 -26
-30 -6 -76 -15 -104 -20 -27 -6 -111 -22 -185 -35 -154 -29 -323 -61 -425 -80
-162 -32 -171 -31 -300 24 -11 5 -51 21 -90 36 -38 15 -79 30 -90 35 -11 4
-51 20 -90 35 -38 15 -80 31 -92 36 -59 24 -70 28 -103 39 -19 7 -48 19 -65
25 -16 7 -57 23 -90 35 -33 13 -73 28 -90 35 -16 7 -61 25 -100 40 -38 15 -81
32 -95 37 -32 14 -57 23 -100 38 -19 7 -51 20 -70 28 -53 21 -72 29 -110 42
-19 7 -48 18 -65 25 -16 7 -61 25 -100 40 -38 15 -79 31 -90 35 -11 4 -47 18
-80 30 -33 13 -76 29 -95 37 -19 8 -44 19 -55 23 -21 8 -95 36 -130 50 -11 4
-63 24 -115 45 -52 20 -124 48 -160 62 -36 14 -74 29 -85 33 -25 11 -237 94
-325 127 -36 14 -74 29 -85 34 -110 46 -203 79 -224 78 -14 0 -42 -6 -62 -12z"/>
</g>
</svg>
